<svg width="60" height="60" viewBox="0 0 60 60" fill="none" xmlns="http://www.w3.org/2000/svg">
<path d="M30 54C16.7673 54 6 43.2327 6 30C6 16.7673 16.7673 6 30 6C43.2327 6 54 16.7673 54 30C54 43.2327 43.2327 54 30 54Z" stroke="white" stroke-width="2"/>
<path d="M43.095 30C43.095 22.7662 37.2325 16.905 30 16.905C22.7675 16.905 16.905 22.7662 16.905 30C16.905 37.2337 22.7663 43.095 30 43.095C37.2338 43.095 43.095 37.2337 43.095 30Z" fill="white"/>
<path d="M30 17.5C23.1762 17.6763 17.6763 23.1775 17.5 30H30V17.5ZM30 42.5025C36.8237 42.3237 42.3237 36.8225 42.5 30H30V42.5025Z" fill="#214B64"/>
<path d="M19.4625 16.4925C19.375 15.8762 19.0025 15.3562 18.4313 15.0975C17.8588 14.8375 17.1938 14.935 16.6888 15.29C16.6475 15.3212 16.6088 15.3562 16.5713 15.3875C16.655 15.1012 16.68 14.8112 16.6088 14.5225C16.5413 14.2362 16.3913 13.975 16.18 13.77C15.7525 13.3512 15.1025 13.215 14.5425 13.4237C14.28 13.5237 14.0425 13.6937 13.8663 13.9112C13.7663 14.0375 13.6675 14.16 13.565 14.2887C13.0413 14.9412 12.5175 15.595 11.995 16.2475C11.545 16.81 11.0975 17.3725 10.6463 17.9338C10.6163 17.97 10.5875 18.0113 10.5588 18.0463C10.5563 18.0463 10.6163 18.0925 10.6213 18.095C10.7963 18.2362 10.9688 18.375 11.1438 18.5137C11.8038 19.0437 12.4613 19.5725 13.1225 20.1C13.7738 20.6237 14.4288 21.1462 15.0825 21.6687C15.2488 21.8037 15.4163 21.9362 15.5825 22.0675C15.5875 22.0762 15.6275 22.1138 15.6338 22.105C15.6675 22.0638 15.7 22.02 15.7325 21.9812C16.1813 21.42 16.6313 20.8612 17.0775 20.3C17.615 19.6262 18.1525 18.9587 18.69 18.2862C18.9675 17.9425 19.2738 17.6125 19.405 17.1812C19.4738 16.955 19.4863 16.7238 19.4625 16.4925ZM13.6788 18.385C13.4063 18.17 13.135 17.95 12.8638 17.7325C12.76 17.65 12.6563 17.5687 12.5525 17.4837C12.5488 17.4812 12.66 17.3475 12.6663 17.34C13.1713 16.705 13.6788 16.0737 14.185 15.4412C14.3188 15.2775 14.4388 15.0975 14.6438 15.015C14.9225 14.8975 15.2525 14.9712 15.4563 15.195C15.6188 15.375 15.6738 15.6212 15.6213 15.8575C15.56 16.0687 15.4113 16.2212 15.28 16.3875C15.015 16.7225 14.7463 17.055 14.4813 17.3875C14.2125 17.7175 13.9438 18.0487 13.6788 18.385ZM17.6925 17.6075C17.52 17.8213 17.35 18.035 17.1775 18.25C16.7063 18.84 16.2338 19.43 15.7625 20.0175C15.76 20.02 15.7488 20.04 15.7438 20.0375C15.7188 20.0175 15.6963 19.9963 15.6725 19.9775C15.5425 19.875 15.415 19.7737 15.2863 19.6712C15.0638 19.4912 14.84 19.3112 14.6188 19.1337C15.0463 18.5987 15.4763 18.065 15.9025 17.53C16.1125 17.2675 16.32 17.0087 16.5288 16.7463C16.6775 16.5612 16.8663 16.4275 17.1138 16.42C17.4113 16.4125 17.6713 16.5837 17.7975 16.85C17.9038 17.11 17.8675 17.3888 17.6925 17.6075ZM45.6375 13.7625L44.4363 12.6475L40.5263 17.7825L41.7288 18.8975L46.015 16.935L43.1613 20.6875L43.9875 22.105L49.8525 19.4125L49.025 17.9925L45.6388 19.545L48.045 16.3875L46.9913 15.0737L43.385 16.7288L45.6375 13.7625ZM28.0875 9.63625L29.46 13.9687H30.5413L31.9113 9.63625L32.055 13.9687L33.5713 14.2112L33.355 7.71125L31.4075 7.46625L30.0013 12.0437L28.5925 7.46625L26.645 7.71125L26.4288 14.2112L27.9438 13.9687L28.0875 9.63625Z" fill="#CFD8DC"/>
</svg>
